<?xml version="1.0" encoding="UTF-8"?> <svg xmlns="http://www.w3.org/2000/svg" width="146" height="46" viewBox="0 0 146 46" fill="none"> <rect width="145.147" height="46" rx="10" fill="#171616"></rect> <path d="M18.3359 16.6184L32.5156 5.36719L46.6953 16.6184V28.848L32.5156 40.3437L18.3359 28.848V16.6184Z" fill="#000200"></path> <path d="M19.8027 19.0643L31.5376 28.3587V37.6532L19.8027 28.3587V19.0643Z" fill="#9AD8E5"></path> <path d="M45.2285 19.0643L33.4936 28.3587V37.6532L45.2285 28.3587V19.0643Z" fill="#ED5250"></path> <path d="M25.6702 12.705L38.383 22.9778L32.5156 27.3804L19.8027 17.1076L25.6702 12.705Z" fill="#FFD902"></path> <path d="M32.5159 7.32391L45.2287 17.5968L39.3613 21.9994L26.6484 11.7266L32.5159 7.32391Z" fill="#FFD902"></path> <path d="M63.1461 24.6699C63.1461 26.9833 61.367 28.5 59.1277 28.5C56.8885 28.5 55.1094 26.9833 55.1094 24.6699V19.7449H57.2413V24.5933C57.2413 25.8496 57.9774 26.6003 59.1277 26.6003C60.278 26.6003 61.0296 25.8496 61.0296 24.5933V17.5H63.1461V24.6699Z" fill="white"></path> <path d="M56.1653 17.5673L58.9065 22.3153H53.4241L56.1653 17.5673Z" fill="white"></path> <path d="M72.6505 21.16C72.6505 23.096 71.2585 24.712 68.8905 24.712H66.6985V29H64.4745V17.608H68.8905C71.2585 17.608 72.6505 19.224 72.6505 21.16ZM70.4265 21.16C70.4265 20.232 69.7865 19.592 68.7785 19.592H66.6985V22.712H68.7785C69.7865 22.712 70.4265 22.088 70.4265 21.16ZM81.8814 25.64C81.8814 27.848 80.0574 29.096 77.6574 29.096C75.9294 29.096 74.6174 28.728 73.4974 27.592L74.9374 26.152C75.6574 26.872 76.6334 27.112 77.6734 27.112C79.0014 27.112 79.7054 26.6 79.7054 25.688C79.7054 25.304 79.5934 24.984 79.3534 24.744C79.1294 24.536 78.9054 24.44 78.3294 24.36L76.9694 24.152C75.9614 24.008 75.2734 23.704 74.7614 23.208C74.2174 22.68 73.9454 21.928 73.9454 20.968C73.9454 18.936 75.4494 17.512 77.9134 17.512C79.4814 17.512 80.6174 17.896 81.5934 18.84L80.1854 20.232C79.4814 19.544 78.6014 19.448 77.8494 19.448C76.6654 19.448 76.1054 20.104 76.1054 20.888C76.1054 21.192 76.1854 21.48 76.4254 21.704C76.6494 21.912 76.9854 22.072 77.4654 22.136L78.8254 22.344C79.8654 22.488 80.5054 22.76 81.0014 23.24C81.6094 23.8 81.8814 24.616 81.8814 25.64ZM91.4785 29H83.9745V17.608H91.4785V19.592H86.1985V22.264H90.6945V24.248H86.1985V27.016H91.4785V29ZM101.054 29H93.662V17.608H95.886V27.016H101.054V29ZM110.257 29H102.865V17.608H105.089V27.016H110.257V29ZM119.572 29H112.068V17.608H119.572V19.592H114.292V22.264H118.788V24.248H114.292V27.016H119.572V29ZM130.38 29H127.804L125.58 24.456H123.98V29H121.756V17.608H126.22C128.54 17.608 129.916 19.192 129.916 21.096C129.916 22.696 128.94 23.688 127.836 24.088L130.38 29ZM127.692 21.096C127.692 20.216 127.052 19.592 126.076 19.592H123.98V22.6H126.076C127.052 22.6 127.692 21.976 127.692 21.096Z" fill="white"></path> </svg> 